PathFileType	4	(X/Y/Z)	C:\Users\Basilio\Documents\Thesis Gigler\squatting_fais\c3dfiles\077\SJ_pre5\markers_experimental.trc
DataRate	CameraRate	NumFrames	NumMarkers	Units	OrigDataRate	OrigDataStartFrame	OrigNumFrames
200.000000	200.000000	4	60	mm	200.000000	169	1356
Frame#	Time	FHD			LBHD			RBHD			C7			T10			CLAV			LSHO			LUUPA			LMUPA			LDUPA			LLEP			LMEP			LRAD			LUL			LRFIN			RSHO			RUPA1			RMUPA			RDUPA			RLEP			RMEP			RRAD			RUL			RUFIN			LASI			RASI			USACR			LSACR			RSACR			LTHI2			LTHI3			LTHI4			LLFC			LMFC			LTIB1			LTIB2			LTIB3			LTIB4			LLMAL			LHEE			LMT1			LMT2			LMT5			RTHI			RTHI2			RTHI3			RTHI4			RLFC			RMFC			RTIB1			RTIB2			RTIB3			RTIB4			RLMAL			RMMAL			RHEE			RMT1			RMT2			RMT5			LTHI1			
		X1	Y1	Z1	X2	Y2	Z2	X3	Y3	Z3	X4	Y4	Z4	X5	Y5	Z5	X6	Y6	Z6	X7	Y7	Z7	X8	Y8	Z8	X9	Y9	Z9	X10	Y10	Z10	X11	Y11	Z11	X12	Y12	Z12	X13	Y13	Z13	X14	Y14	Z14	X15	Y15	Z15	X16	Y16	Z16	X17	Y17	Z17	X18	Y18	Z18	X19	Y19	Z19	X20	Y20	Z20	X21	Y21	Z21	X22	Y22	Z22	X23	Y23	Z23	X24	Y24	Z24	X25	Y25	Z25	X26	Y26	Z26	X27	Y27	Z27	X28	Y28	Z28	X29	Y29	Z29	X30	Y30	Z30	X31	Y31	Z31	X32	Y32	Z32	X33	Y33	Z33	X34	Y34	Z34	X35	Y35	Z35	X36	Y36	Z36	X37	Y37	Z37	X38	Y38	Z38	X39	Y39	Z39	X40	Y40	Z40	X41	Y41	Z41	X42	Y42	Z42	X43	Y43	Z43	X44	Y44	Z44	X45	Y45	Z45	X46	Y46	Z46	X47	Y47	Z47	X48	Y48	Z48	X49	Y49	Z49	X50	Y50	Z50	X51	Y51	Z51	X52	Y52	Z52	X53	Y53	Z53	X54	Y54	Z54	X55	Y55	Z55	X56	Y56	Z56	X57	Y57	Z57	X58	Y58	Z58	X59	Y59	Z59	X60	Y60	Z60	

170	0.845	-181.5327911376953	1813.343017578125	-941.473083496094	-323.6871948242188	1712.73828125	-1018.566345214844	-339.5987548828126	1709.870239257813	-874.1870727539065	-398.274383544922	1584.761840820313	-951.6506347656252	-468.3865356445314	1259.846069335938	-948.328796386719	-241.2784423828126	1507.958862304688	-944.199157714844	-292.6507263183594	1544.821166992188	-1137.667602539063	-344.7655944824219	1408.870361328125	-1302.6083984375	-312.2771301269532	1369.285034179688	-1304.682373046875	-355.7728576660157	1357.364379882813	-1346.053588867188	-354.3846740722657	1295.003662109375	-1378.64404296875	-433.8644104003907	1278.035400390625	-1346.768432617188	-346.5975646972657	1071.724487304688	-1168.940185546875	-300.3323669433594	1027.632934570313	-1219.308227539063	-300.7041015625001	1055.40771484375	-1110.7978515625	-272.0592041015626	1546.785766601563	-756.7678833007814	-347.1916809082032	1423.265991210938	-577.9273071289064	-324.0360717773438	1378.3759765625	-578.3438720703126	-364.8654479980469	1369.787719726563	-534.7098999023439	-372.5989990234376	1305.2001953125	-506.6062011718751	-456.4579162597657	1297.65478515625	-534.9922485351564	-393.6520080566407	1075.330200195313	-693.3900756835939	-332.5251464843751	1042.101196289063	-651.7440185546876	-339.4047546386719	1076.443237304688	-746.2570800781251	-275.8329772949219	1043.945190429688	-1072.953002929688	-298.3342895507813	1059.840698242188	-797.358825683594	-488.3955993652345	1132.9248046875	-943.834411621094	-494.3975524902345	1103.261596679688	-971.8489990234377	-501.7731323242189	1101.539306640625	-917.6229248046877	-343.9242858886719	764.4998779296876	-1166.9599609375	-295.7165832519532	764.7145385742189	-1164.065551757813	-375.0783386230469	711.9052124023439	-1158.202270507813	-353.1579589843751	564.4375610351564	-1160.514038085938	-325.1983947753907	519.0148925781251	-1037.32080078125	-331.5955505371094	332.6370849609376	-1141.567260742188	-376.6380310058594	304.1013488769532	-1214.262817382813	-341.5517883300782	293.5379028320313	-1185.861206054688	-350.2787780761719	209.3662261962891	-1170.012817382813	-427.2187500000001	104.2041244506836	-1222.733764648438	-471.333465576172	47.41255187988282	-1172.492797851563	-253.486801147461	59.57178497314455	-1197.187255859375	-262.2746887207032	59.36838150024415	-1238.826171875	-382.8113403320313	101.515495300293	-1144.379516601563	-411.9074096679689	733.6763916015626	-705.4050292968751	-374.1867980957032	679.8721313476564	-687.5685424804689	-340.4164733886719	682.0679931640626	-686.0957031250001	-396.6676330566407	602.7828369140626	-701.7228393554689	-390.346405029297	536.5933227539064	-690.7687377929689	-324.7865600585938	504.8133239746095	-799.3204345703127	-337.2816467285157	402.7108764648439	-670.8738403320314	-407.4248657226564	328.0442810058594	-641.1562500000001	-361.1397399902344	321.3057861328126	-649.1247558593751	-346.3260498046876	271.9804992675782	-677.8859863281251	-419.6624755859376	98.6635437011719	-624.7553710937501	-372.4478149414063	93.9401092529297	-705.2431030273439	-465.576873779297	44.87093734741212	-683.5307006835939	-247.1871643066407	60.17311477661134	-619.4537353515626	-260.2743835449219	62.1676712036133	-583.9407348632814	-286.2024841308594	42.35957717895509	-539.4797973632814	nan	nan	nan	
171	0.85	-180.2053985595703	1812.33740234375	-941.1951904296877	-322.5276489257813	1712.622802734375	-1018.439880371094	-338.2669372558594	1710.131713867188	-874.019226074219	-397.2586364746095	1584.939819335938	-951.4851684570315	-468.6409606933595	1260.284545898438	-948.422546386719	-240.5256805419922	1507.540893554688	-943.9667968750002	-291.5527648925782	1544.632934570313	-1137.349487304688	-344.1481628417969	1409.0751953125	-1302.485595703125	-311.9689636230469	1369.42236328125	-1304.543212890625	-354.6764831542969	1357.587280273438	-1346.09912109375	-354.2004394531251	1295.37255859375	-1378.651000976563	-433.8580627441407	1278.664916992188	-1346.842407226563	-347.4258117675782	1071.86572265625	-1169.007934570313	-301.3885192871094	1027.642700195313	-1219.282470703125	-301.4203796386719	1055.903564453125	-1110.789794921875	-271.0151062011719	1546.252319335938	-756.5256958007814	-346.4259948730469	1423.281982421875	-577.6812133789064	-323.5629882812501	1378.048095703125	-578.1281127929689	-364.2491760253907	1369.81494140625	-534.5785522460939	-372.3398742675782	1305.138916015625	-506.496551513672	-456.3396301269532	1298.021606445313	-534.8641357421876	-394.3155517578126	1075.811645507813	-693.6002197265626	-334.3216552734376	1041.767333984375	-652.5451049804689	-340.7224731445313	1076.525634765625	-746.5607910156251	-276.9967956542969	1043.88525390625	-1072.986450195313	-299.6711120605469	1059.772094726563	-797.538757324219	-489.1567382812501	1133.747314453125	-944.197204589844	-495.3915405273439	1103.972778320313	-972.214538574219	-502.8644409179689	1101.9365234375	-917.958923339844	-345.0502624511719	764.7501831054689	-1167.766723632813	-296.8323974609376	765.1283569335939	-1164.740600585938	-374.9925842285157	711.7478637695314	-1158.625366210938	-352.4282531738282	564.3654174804689	-1161.027587890625	-324.5394287109376	519.0810546875001	-1037.858154296875	-331.1578674316407	332.4038391113282	-1141.778198242188	-376.3608398437501	304.0708923339844	-1214.525756835938	-341.2240600585938	293.1896667480469	-1185.949462890625	-350.0876464843751	209.4038848876954	-1170.0859375	-427.1223449707032	104.1246490478516	-1222.804565429688	-471.3455200195314	47.46419525146485	-1172.537353515625	-253.4143676757813	59.52454757690431	-1197.179809570313	-262.3175048828126	59.35576629638673	-1238.80322265625	-382.8106994628907	101.4492416381836	-1144.379272460938	-411.9796142578126	733.4513549804689	-704.9788208007814	-373.8113098144532	679.8896484375001	-687.0424804687501	-340.0211791992188	682.2600097656251	-685.5288085937501	-395.8742675781251	602.6823730468751	-701.0438232421876	-389.0056762695314	536.7192993164064	-690.0017700195314	-324.3772888183594	504.948211669922	-798.7164306640627	-336.2893371582032	402.6566772460939	-670.4672851562501	-406.4626770019532	328.1559753417969	-640.5798950195314	-360.2171020507813	321.2721252441407	-648.8233642578126	-345.6888427734376	271.7385559082032	-677.5493164062501	-419.4006958007814	98.73270416259768	-624.6737670898439	-372.4154663085938	93.93120574951173	-705.2862548828126	-465.5400695800782	44.9259376525879	-683.5108032226564	-247.1643829345704	60.1352882385254	-619.4298095703126	-260.2541809082032	62.20342254638673	-583.9147949218751	-286.1756896972657	42.39618682861329	-539.4870605468751	nan	nan	nan	
172	0.855	-179.29541015625	1812.28759765625	-941.1717529296877	-321.4862365722657	1711.908325195313	-1018.3193359375	-337.2236938476563	1709.81005859375	-873.797058105469	-396.3696899414064	1584.896484375	-951.3662719726565	-468.8475952148439	1260.66650390625	-948.5825195312502	-239.8456420898438	1507.059326171875	-943.7387695312502	-290.2976074218751	1544.482299804688	-1137.012451171875	-343.0984802246094	1409.294677734375	-1302.210205078125	-311.4482727050782	1369.513427734375	-1304.354125976563	-353.6901245117188	1357.781982421875	-1345.98828125	-353.9049072265626	1295.612060546875	-1378.627075195313	-433.5220642089845	1279.096801757813	-1346.774780273438	-348.1458740234376	1072.16064453125	-1168.9287109375	-302.2694702148438	1027.785522460938	-1219.341552734375	-302.2465820312501	1056.252685546875	-1110.748657226563	-269.7029418945313	1546.073974609375	-756.3367919921876	-345.7437744140626	1423.12744140625	-577.3609619140626	-323.0513610839844	1377.692138671875	-578.0017700195314	-363.6304016113282	1369.704833984375	-534.4980468750001	-372.1598510742188	1305.127197265625	-506.3880310058595	-456.240203857422	1298.403198242188	-534.7055053710939	-396.1008605957032	1075.872680664063	-693.7811889648439	-335.6668395996094	1041.816162109375	-652.7826538085939	-341.9158935546876	1076.647216796875	-746.6923217773439	-277.7174987792969	1043.599487304688	-1072.949829101563	-300.9151916503907	1059.679321289063	-797.699401855469	-489.9364013671876	1134.190185546875	-944.384216308594	-496.5625305175782	1104.863037109375	-972.5444946289065	-503.952606201172	1102.642456054688	-918.2930297851565	-345.3436889648438	764.7922363281251	-1168.296508789063	-297.0735778808594	765.2675170898439	-1165.21240234375	-375.1625061035157	711.6593627929689	-1159.112548828125	-351.8240966796876	564.2763061523439	-1161.6728515625	-323.8335876464844	519.0411376953126	-1038.445190429688	-330.6804809570313	332.1881103515626	-1142.074340820313	-375.6922607421876	303.9286499023438	-1214.987915039063	-340.7636413574219	292.9431457519532	-1186.169189453125	-350.0340881347657	209.7391052246094	-1169.92919921875	-426.9839782714845	104.1637802124024	-1222.904052734375	-471.3563537597657	47.49167251586915	-1172.518798828125	-253.4479064941407	59.50251388549806	-1197.129516601563	-262.1773986816407	59.42428207397462	-1238.769775390625	-382.8146362304688	101.4019165039063	-1144.34716796875	-412.1096801757814	733.0875854492189	-704.5695190429689	-373.7000122070313	679.2790527343751	-685.8903808593751	-339.6261596679688	681.6463012695314	-685.0415649414064	-394.9502563476564	602.3328247070314	-700.3420410156251	-387.7688903808595	536.5466918945314	-689.1989746093751	-322.9049072265626	505.0230102539064	-797.811462402344	-335.2522583007813	402.6271362304689	-669.7748413085939	-405.6956481933595	328.1900329589844	-640.2004394531251	-359.3793029785157	321.1899719238282	-648.3556518554689	-345.0470581054688	271.6405639648438	-677.3395996093751	-419.2960815429689	98.6421813964844	-624.6536865234376	-372.4754943847657	93.89197540283205	-705.2797241210939	-465.5621337890626	44.96299362182618	-683.5070190429689	-247.1408843994141	60.11668014526369	-619.4876098632814	-260.2143859863282	62.23191070556642	-583.9838867187501	-286.1817321777344	42.40251541137696	-539.5140380859376	nan	nan	nan	
173	0.86	-178.4235534667969	1812.5390625	-941.1303710937502	-320.3647766113282	1711.551147460938	-1017.997619628906	-336.1591796875001	1709.471435546875	-873.623718261719	-395.3590087890626	1584.881225585938	-951.1414184570315	-468.9826049804689	1261.095092773438	-948.764587402344	-239.1574707031251	1506.6806640625	-943.5814208984377	-289.1352233886719	1544.242065429688	-1136.748901367188	-342.4345092773438	1409.485961914063	-1302.092163085938	-310.7332153320313	1369.571044921875	-1304.189453125	-353.0426940917969	1358.192626953125	-1345.934814453125	-353.5755920410157	1295.8369140625	-1378.544311523438	-433.6296386718751	1279.996826171875	-1347.015869140625	-349.0624694824219	1072.463989257813	-1168.966674804688	-303.1436767578126	1027.890014648438	-1219.338012695313	-302.9997253417969	1056.309814453125	-1110.738891601563	-268.7357788085938	1545.563842773438	-756.2374877929689	-344.9953002929688	1422.989379882813	-577.1299438476564	-322.4348754882813	1377.671875	-577.7886352539064	-363.2050170898438	1369.653442382813	-534.4006958007814	-371.9367675781251	1305.050903320313	-506.3249511718751	-456.1817932128907	1298.740600585938	-534.4392700195314	-396.7783203125001	1076.243896484375	-693.9756469726564	-336.5882568359376	1042.096923828125	-652.4991455078126	-343.3721008300782	1076.590087890625	-747.1195068359376	-278.8115234375001	1043.343994140625	-1073.02001953125	-302.2820739746094	1059.448608398438	-797.9485473632815	-490.5440673828126	1134.822998046875	-944.6177978515627	-497.5013122558595	1105.407958984375	-972.7680664062502	-505.1470336914064	1103.1142578125	-918.634216308594	-345.7057189941407	764.8116455078126	-1168.694091796875	-297.4747314453126	765.4329223632814	-1165.806884765625	-375.2279663085938	711.4026489257814	-1159.672241210938	-351.2904663085938	564.3466796875001	-1162.1669921875	-323.2184448242188	519.0458984375001	-1039.04638671875	-330.1749877929688	332.1931762695313	-1142.422241210938	-375.2079467773438	303.6764526367188	-1215.318481445313	-340.3179016113282	292.7072143554688	-1186.52783203125	-349.7870483398438	209.6175842285157	-1170.026977539063	-426.8280639648439	104.1169509887696	-1223.026000976563	-471.3581848144532	47.45636367797852	-1172.587280273438	-253.4371032714844	59.49044799804689	-1197.109985351563	-262.2171020507813	59.37998580932619	-1238.756958007813	-382.7301330566407	101.4644317626953	-1144.418212890625	-412.1889648437501	732.6380004882814	-704.1161499023439	-373.4545288085938	679.2330322265626	-685.4838256835939	-339.3120727539063	681.7984619140626	-684.4768676757814	-394.097137451172	602.2862548828126	-699.5505371093751	-386.4795227050782	536.5767211914064	-688.3638305664064	-321.6896057128907	505.0843200683595	-796.8964843750002	-334.1231079101563	402.7610778808595	-669.0743408203126	-404.9734497070314	328.0558166503907	-639.7677612304689	-358.7122497558594	320.8615112304688	-647.8615722656251	-344.4140625000001	271.4239807128907	-677.0297851562501	-419.0873107910157	98.7255783081055	-624.5414428710939	-372.3701782226563	93.9351272583008	-705.2187500000001	-465.4281005859376	44.90353012084962	-683.5645751953126	-247.1313476562501	60.13600921630861	-619.4985961914064	-260.1590270996094	62.28801345825197	-583.9761352539064	-286.1419677734376	42.47877883911134	-539.5783081054689	nan	nan	nan	
